<svg width="86" height="140" viewBox="0 0 86 140" fill="none" xmlns="http://www.w3.org/2000/svg">
<g id="Illustration">
<path id="Vector" d="M51.5566 50.2633C52.0696 51.744 54.7941 55.1185 59.1196 56.6016L73.1161 59.6439C73.1161 59.3178 73.128 58.994 73.1447 58.6715C74.5599 59.3023 76.7286 58.9095 77.4297 59.0286L73.1661 58.3691C73.3709 55.3589 74.2171 52.4844 74.3338 49.5313C74.3493 49.1373 60.8467 46.3997 59.3065 45.7581C58.6233 45.4736 56.6736 40.9077 55.5321 37.7701L60.1361 35.0194L58.3269 31.6961L63.8022 28.2443C64.6902 27.5769 65.5368 26.8563 66.3375 26.0863L69.2287 26.7184C69.2382 26.7184 69.875 26.7719 69.9524 26.7719C70.9367 26.7719 71.1891 26.0066 71.3521 25.1424L72.9828 13.3586C73.1959 11.2161 73.6006 10.2913 71.589 10.0854L65.8126 9.14385C64.5402 8.98911 64.2581 10.6519 64.2652 10.6531L63.2297 17.214C61.8489 17.1199 59.6695 17.9043 59.1994 19.341C58.6887 20.905 58.6042 21.6644 58.6042 23.3439L55.1738 25.9221L54.9358 25.484L53.1158 26.6743C51.5363 20.2147 47.1347 23.801 45.5504 25.246C46.017 23.3415 46.6443 21.0288 46.6443 20.2468C46.6443 20.1421 51.384 18.9994 51.3316 16.2701C51.2435 11.647 49.7973 8.25947 47.9619 6.42644C49.6378 5.08023 50.8055 3.56976 50.4996 2.04501C49.6664 -2.09122 42.2295 1.67007 39.962 5.50873C39.2264 6.75257 38.8372 10.1508 40.1275 10.9317C40.0178 11.716 39.9546 12.5061 39.9382 13.2979C39.8728 15.7297 39.7002 19.003 39.4264 20.4694C36.7245 18.803 32.6108 19.6707 29.3197 25.7257C30.1351 24.3295 19.8689 16.1701 12.8807 28.6157C12.6962 28.9466 11.2703 31.1593 9.49676 33.9017C6.43654 38.6343 2.3384 44.9463 1.77897 45.9057C-1.52168 51.5607 0.933872 54.6424 5.16294 54.7364L17.9097 55.0209C16.6551 58.6096 15.8148 61.3663 15.8362 62.2745L17.5157 62.2947C16.6944 65.4787 16.8015 68.5139 17.3407 71.2409C18.1811 75.4533 20.0784 78.9277 21.2556 81.0785L21.2341 81.0928H21.2639C21.4222 81.3821 21.5686 81.6475 21.696 81.8867L21.7043 82.026L21.2341 81.0928L8.45288 118.069C7.60183 119.91 3.68461 125.032 3.17398 126.726C1.86467 126.377 0.935063 129.782 2.54551 130.11C5.00821 130.612 3.29658 129.468 3.92743 131.485C4.14525 132.182 7.31497 131.851 7.09477 131.896C5.9771 135.124 10.3085 133.754 10.2204 134.059C9.17419 137.868 13.9984 135.343 13.6175 136.141C12.6332 138.2 15.1875 138.394 15.7338 138.164C18.0144 137.223 16.3504 138.723 17.2705 139.19C20.5057 140.833 21.5615 138.364 21.6364 138.347C22.0376 140.305 26.5892 139.324 25.412 136.299C26.5226 129.8 20.0427 130.324 19.6784 129.905C18.7095 128.791 17.6788 125.85 18.681 122.805L18.1537 122.567L29.5804 97.6401L28.9436 96.3867H28.9781L43.2103 124.756C43.0782 124.913 43.0008 125.184 43.4484 125.839C44.7493 129.55 44.7993 133.583 45.8718 135.123C45.5147 135.46 45.8325 138.456 46.3086 138.558C48.05 138.939 48.4666 136.397 48.9498 137.885C49.2177 138.708 50.5912 137.939 50.9733 137.616C52.191 136.591 51.6435 136.078 52.2969 136.648C54.0597 138.186 55.2155 135.408 55.2333 135.401C56.3748 136.036 55.4845 136.318 57.5139 135.948C59.2993 135.622 59.804 134.059 59.9064 134.195C60.6753 135.207 62.4595 134.853 62.9702 133.957C63.6522 132.75 63.2344 133.155 63.5248 133.269C64.7151 133.737 64.8342 133.67 65.9697 133.013C66.5208 132.695 66.8231 131.788 66.8541 131.777C67.0159 132.224 68.186 132.326 68.58 132.227C69.0285 132.119 69.4269 131.862 69.7099 131.497C69.993 131.133 70.1439 130.683 70.138 130.222L69.7619 128.928C70.0773 128.571 66.8933 122.809 61.0979 124.167C55.375 125.509 54.8013 122.506 53.8479 121.864L48.6939 105.758L37.8076 71.7217C38.9874 71.7087 40.165 71.6193 41.3332 71.4539C41.3404 72.8823 41.3475 74.2856 41.3475 75.6199V71.4539C42.4523 71.307 43.5329 71.0148 44.5613 70.585L41.3475 70.6624V64.9014C42.4569 64.9312 43.5829 64.949 44.7362 64.949L41.3475 64.8562V62.5827L47.5132 62.6565C47.5203 62.6565 51.0221 48.9147 52.7445 39.4365L53.8848 38.7557L51.5566 50.2633ZM63.044 18.3792L62.9856 18.7506C62.7378 19.117 62.4591 19.4614 62.1524 19.7802C62.0049 19.929 61.8287 20.2313 61.6073 20.3075C61.6787 20.2289 62.4607 19.2113 63.044 18.3792ZM21.7043 81.8998C21.7852 82.0522 21.8602 82.195 21.9257 82.326L24.9014 88.2678H24.8466L21.7007 82.0284C21.7055 81.9843 21.7043 81.9427 21.7043 81.8998ZM25.3942 136.336C25.2311 136.533 24.6729 136.605 23.9944 136.618C24.7478 136.539 25.2716 136.424 25.3882 136.336H25.3942ZM28.8186 96.1225L24.9573 88.4642H25.0121L28.8543 96.1213L28.8186 96.1225ZM41.332 64.8538L36.6911 64.7253C38.2147 64.7895 39.7525 64.8538 41.3261 64.8955C41.3118 66.7571 41.3189 68.7175 41.3261 70.6576L37.4946 70.7493L37.3684 70.3565L31.5622 67.7712L31.3979 64.58C31.3372 64.5705 31.3111 65.7608 31.317 67.6617L24.367 64.5669C25.5227 64.5134 26.6547 64.4872 27.7712 64.4812L23.9385 64.3765L19.2964 62.309L41.3558 62.5827C41.3416 63.3124 41.332 64.0742 41.3261 64.8538H41.332Z" fill="transparent"/>
<path id="Vector_2" d="M81.0803 63.6062L81.5826 60.6305L79.49 60.7031L77.5927 59.4057L75.3788 59.2783L75.1836 62.4921C75.5883 63.949 79.8709 64.368 81.0803 63.6062Z" fill="transparent"/>
<path id="Vector_3" d="M75.8125 44.1816L75.3364 46.2337L74.2771 47.8287L75.4673 47.9941L75.4876 50.8948C75.2186 50.8258 74.8389 50.7401 74.2568 50.6377L76.6136 52.9409L78.2478 55.925C78.0503 56.282 78.0384 56.7522 78.2776 57.2509C78.3562 57.414 77.2421 58.1294 77.6825 59.0852C77.8789 59.5089 78.2657 59.6017 79.5869 60.2969C80.6879 60.8789 83.5529 60.4814 83.4291 58.74C83.403 58.3638 83.5767 58.1008 83.7862 57.8187C83.8825 57.7243 83.9647 57.6164 84.0302 57.4985C84.316 57.1174 84.4724 56.6549 84.4766 56.1785C84.4775 55.6965 84.5579 55.2179 84.7147 54.7621C84.7516 54.6663 84.7803 54.5675 84.8003 54.4669C84.8337 54.3478 84.867 54.2217 84.9003 54.0717C85.1503 52.9635 84.4087 52.1899 83.2863 51.6911L83.7624 49.1451L85.18 49.3415L84.5932 47.3776L84.6682 45.3445L75.8125 44.1816ZM78.9442 55.3846C78.7107 55.4506 78.5031 55.5864 78.349 55.7738C78.4129 55.6686 78.4995 55.5791 78.6025 55.5118C78.7055 55.4444 78.8222 55.401 78.9442 55.3846Z" fill="transparent"/>
<path id="Vector_4" d="M62.5385 32.5473C62.4869 32.506 62.4315 32.4698 62.373 32.439L62.5385 32.5473Z" fill="transparent"/>
<path id="Vector_5" d="M68.9814 36.7679L71.2549 38.2557C70.9811 37.138 70.755 36.0025 68.9814 36.7679Z" fill="transparent"/>
<path id="Vector_6" d="M73.5479 39.7556L71.2578 38.2559C71.5209 39.3164 71.8375 40.3615 73.5479 39.7556Z" fill="transparent"/>
<path id="Vector_7" d="M27.7744 64.4871L31.4012 64.5859L36.692 64.7252C33.7234 64.6062 30.8061 64.4681 27.7744 64.4871Z" fill="transparent"/>
<path id="Vector_8" d="M10.699 32.0306C9.50876 31.7771 9.6635 31.4259 8.96956 32.3996C8.01734 33.7351 6.44141 36.5763 6.44141 36.5763C6.4914 36.8143 7.3115 36.706 7.55551 36.8917L10.699 32.0306Z" fill="transparent"/>
<path id="Vector_9" d="M75.6224 43.9107L75.1022 46.1353L73.8512 48.0183L75.2212 48.2076L75.2379 50.5882C75.0439 50.5441 74.807 50.4941 74.5142 50.4406C74.5392 50.1442 74.5606 49.8454 74.5725 49.549C74.5856 49.2134 74.588 49.1336 66.5976 47.3137C63.3934 46.5829 60.0809 45.8282 59.3917 45.5414C59.1084 45.4223 58.1931 43.8012 56.8528 40.5327C56.4791 39.6221 56.1244 38.7068 55.822 37.8843L55.6078 38.0116L55.3959 38.139L54.1068 38.9091L53.8235 39.0781L53.5403 39.2472L51.3168 50.2144L51.3037 50.2799L51.3251 50.343C51.8524 51.8641 54.6579 55.3302 59.0405 56.8324L73.3596 59.9473V59.6438C73.3596 59.4355 73.3596 59.2272 73.3715 59.0189C73.9438 59.1894 74.5373 59.2779 75.1343 59.282L74.9391 62.5243L74.9499 62.5636C75.0832 63.0397 75.5569 63.4515 76.3187 63.7479C77.2176 64.0692 78.166 64.2303 79.1206 64.224C79.9895 64.224 80.7727 64.0895 81.2095 63.8158L81.3024 63.7574L81.8237 60.6782C82.1865 60.5997 82.5329 60.4587 82.8474 60.2616C83.427 59.8843 83.7091 59.3522 83.6651 58.7249C83.6449 58.4404 83.7746 58.2369 83.9662 57.9846C84.0745 57.8753 84.1671 57.7515 84.2412 57.6168C84.545 57.202 84.7115 56.7026 84.7173 56.1884C84.7132 55.7322 84.7852 55.2784 84.9304 54.8458L84.9375 54.8208C84.9728 54.7274 85.001 54.6315 85.022 54.5339C85.0554 54.4149 85.0899 54.2792 85.1244 54.1245C85.2014 53.8189 85.2014 53.499 85.1243 53.1934C85.0472 52.8878 84.8955 52.6061 84.6828 52.3736C84.3642 52.0228 83.9784 51.7395 83.5485 51.5404L83.9496 49.411L85.5124 49.6276L84.8328 47.347L84.9149 45.1319L75.6224 43.9107ZM84.0448 48.9372L82.2987 48.6992L76.896 47.9422L75.7057 47.7767L75.4676 47.7434L75.2224 47.7089L74.6928 47.6363L75.5033 46.4162L84.4043 47.5922L84.8363 49.0408L84.0448 48.9372ZM84.4102 45.5556L84.3543 47.103L75.6462 45.9484L75.9961 44.4523L84.4102 45.5556ZM73.3965 58.5095C73.4882 57.0538 73.7346 55.6195 73.975 54.2245C74.1619 53.1461 74.3499 52.0403 74.4678 50.9274C74.7927 50.9881 75.0427 51.0464 75.2415 51.0893V51.2511C75.2927 52.0498 76.5686 52.6795 79.0337 53.1139C79.4884 53.1949 79.9467 53.2591 80.3835 53.3115C81.0393 53.5198 82.1546 54.1209 82.5796 54.8291C82.7819 55.1672 82.8033 55.4814 82.6438 55.7885C82.6035 55.8851 82.5439 55.9726 82.4689 56.0456C82.3938 56.1187 82.3047 56.1757 82.207 56.2134C81.8011 56.3396 81.206 56.0206 80.6299 55.7123C80.0919 55.4255 79.5396 55.1303 79.0373 55.1374V55.1136C78.9849 55.1243 78.9349 55.1362 78.8861 55.1505C78.8321 55.1583 78.7788 55.1702 78.7266 55.1862C78.49 55.2652 78.2876 55.4227 78.1529 55.6326C78.0969 55.7019 78.0482 55.7769 78.0077 55.8563C77.7994 56.2682 77.8018 56.7645 78.0077 57.2621C77.9815 57.2966 77.9458 57.3394 77.9137 57.3811C77.6756 57.6691 77.2638 58.1619 77.3376 58.7832C77.016 58.7647 76.6937 58.7647 76.3722 58.7832C75.5081 58.8094 74.3011 58.8499 73.3965 58.5095ZM77.4161 59.0796C77.4244 59.1046 77.4352 59.1296 77.4459 59.1546H77.403L77.4161 59.0796ZM83.1783 58.7571C83.2092 59.2034 83.0081 59.5712 82.5831 59.8497C81.7499 60.3973 80.3418 60.4235 79.6955 60.0878C79.3789 59.92 79.1111 59.7855 78.8968 59.6772C78.1993 59.326 78.0136 59.2248 77.9053 58.9904C77.6768 58.4964 77.9732 58.0786 78.2945 57.6929L78.3481 57.6299C79.3384 58.4071 80.4787 58.8201 81.5928 58.8201C81.8591 58.8202 82.1248 58.7963 82.3867 58.7487C82.6619 58.7 82.9307 58.6202 83.1878 58.5107C83.1761 58.5922 83.1729 58.6748 83.1783 58.7571ZM84.2245 56.173C84.2102 56.8598 83.9258 57.2311 83.6496 57.5918L83.5961 57.6608C83.3068 57.9429 82.8402 58.1643 82.2951 58.2655C81.6892 58.3774 80.1097 58.4845 78.4767 57.1014C78.3088 56.7264 78.2945 56.3634 78.4409 56.0742C78.4409 56.0635 78.454 56.0527 78.46 56.0408H78.4695C78.491 55.9998 78.5149 55.9601 78.5409 55.9218C78.6583 55.7821 78.8138 55.6796 78.9885 55.6266C79.3682 55.5897 79.8919 55.8647 80.4001 56.1408C80.9417 56.4301 81.4976 56.7264 82.0094 56.7264C82.1255 56.7271 82.2411 56.7103 82.3522 56.6764C82.642 56.5792 82.8832 56.3742 83.0259 56.1039V56.1194C83.4612 56.0613 83.8789 55.9103 84.2507 55.6766C84.2388 55.8218 84.2293 55.9837 84.2245 56.173ZM84.3174 52.6938C84.4792 52.8689 84.5946 53.0818 84.653 53.313C84.7114 53.5442 84.711 53.7864 84.6518 54.0174C84.6257 54.1364 84.5995 54.2364 84.5733 54.3328C84.5733 54.3554 84.565 54.3792 84.5614 54.403C84.5304 54.5125 84.5007 54.6113 84.4721 54.7042C84.3281 55.047 84.002 55.4017 83.2247 55.585C83.2755 55.2335 83.1977 54.8755 83.0057 54.5768C82.7462 54.1447 82.2915 53.7543 81.7999 53.4448C82.376 53.4865 82.8033 53.502 82.9533 53.502H83.0033L83.1914 53.4889L83.4639 52.0474C83.7856 52.2087 84.0749 52.4278 84.3174 52.6938Z" fill="#05df72"/>
<path id="Vector_10" d="M70.3861 130.212V130.178L70.029 128.927C70.054 128.79 70.029 128.541 69.7814 128.073L69.7707 128.037H69.7624C69.716 127.948 69.6624 127.852 69.5993 127.746C69.2874 127.222 66.3962 122.667 61.0519 123.92C56.6597 124.951 55.4445 123.382 54.6398 122.344C54.4749 122.109 54.2827 121.895 54.0673 121.705L38.1437 71.9514C39.131 71.9292 40.1163 71.8545 41.0956 71.7276C41.1028 73.0822 41.1087 74.3677 41.1087 75.6163H41.5967C41.5967 74.3451 41.5967 73.0369 41.5836 71.6562C42.4669 71.5224 43.3348 71.302 44.1749 70.998L41.83 78.3908L42.2954 78.5372L47.2482 62.8922H47.6207L47.6934 62.8196C47.7445 62.7684 47.7683 62.7446 48.7408 58.7631C49.2741 56.5861 50.0775 53.2366 50.8833 49.6443C51.7752 45.6767 52.4715 42.3217 52.9723 39.5793L52.6913 39.7471L52.4104 39.915L42.305 45.9533C38.0199 48.3338 34.7728 49.5146 32.4911 49.5146C31.5206 49.5146 30.7227 49.3015 30.0974 48.8754C27.5704 47.1638 28.1727 42.4479 28.7548 37.882C29.0024 35.943 29.2309 34.1123 29.2309 32.5364H29.7189C29.7189 34.1433 29.4809 35.9882 29.2345 37.9439C28.6715 42.361 28.0882 46.9281 30.3664 48.4707C32.3042 49.78 36.1274 48.8218 42.0562 45.5295L52.3176 39.3984L52.5223 39.2794L52.5414 39.2686L52.8032 39.1127L53.083 38.9449L53.6674 38.5961L53.9507 38.4259L54.234 38.2569L55.2219 37.6677L55.4349 37.5404L55.648 37.4118L59.7961 34.9336L58.1024 31.8222L58.2357 32.0377L58.3738 31.9508L58.5809 31.8199L58.638 31.7841L63.9217 28.4514L63.9395 28.4395C64.7997 27.7921 65.6216 27.0954 66.401 26.3529L69.2017 26.9659H69.2208L69.3708 26.9778C69.7088 27.0052 69.8897 27.0183 69.9421 27.0183C71.2371 27.0183 71.4621 25.828 71.5823 25.19L73.2154 13.3895C73.2416 13.1205 73.2725 12.8706 73.2999 12.6385C73.4189 11.6505 73.5022 10.9376 73.1154 10.4531C72.8452 10.1163 72.381 9.92938 71.6109 9.85082L65.8321 8.90812C64.6334 8.76291 64.118 9.95676 64.0145 10.6078C64.014 10.6146 64.014 10.6213 64.0145 10.6281L63.0135 16.9687C61.5209 16.9568 59.4426 17.8019 58.9582 19.2719C58.4475 20.8359 58.3547 21.6203 58.3499 23.2284L55.2552 25.5542L55.2017 25.5947L55.0041 25.7423L54.86 25.8506L54.8493 25.8304L53.39 26.7826L53.177 26.923L52.9627 27.0623L50.6179 28.5954L50.3965 28.7406L40.2791 35.3609C40.2461 35.3969 40.2013 35.4197 40.1529 35.4252L38.8174 35.7335L39.8803 35.0384V35.0443L40.0803 34.9348C40.8695 34.498 41.3599 34.1659 41.6908 33.8517L52.8449 26.5576L53.0556 26.4195L53.2651 26.2827C52.7687 24.4782 51.9986 23.3462 50.9595 22.9058C49.2312 22.1726 47.2196 23.5105 45.977 24.546C46.0067 24.427 46.0353 24.3139 46.065 24.1973C46.459 22.6273 46.8328 21.1383 46.8852 20.4003L47.0661 20.336C48.1945 19.9361 51.626 18.7196 51.5784 16.2605C51.4927 11.7541 50.1311 8.36773 48.3313 6.43948C49.9537 5.09208 51.0547 3.56852 50.7405 1.99734C50.5203 0.899904 49.8442 0.226205 48.7848 0.0464723C46.1876 -0.392742 41.5455 2.34967 39.753 5.3837C38.9781 6.69301 38.5877 10.0329 39.8661 11.0459C39.7674 11.7901 39.7086 12.5391 39.6899 13.2895C39.6101 16.2129 39.4364 18.7518 39.2423 20.0801C38.7252 19.8062 38.1654 19.6219 37.5867 19.535C34.6562 19.091 31.7543 21.0907 29.4547 25.0007C29.4404 24.9722 29.4237 24.9436 29.4071 24.9138C28.7286 23.739 25.9552 21.5608 22.3165 21.5608H22.2582C19.6479 21.5775 15.8652 22.7928 12.6669 28.4906C12.5324 28.7287 11.7147 30.0023 10.5887 31.7532C10.3875 31.7032 10.2316 31.6532 10.1031 31.6116C9.4496 31.3973 9.302 31.5128 8.77233 32.2567C7.8201 33.5886 6.29416 36.3405 6.22988 36.4572L6.18584 36.5358L6.2037 36.625C6.26678 36.9309 6.62506 36.9678 6.97143 37.0035C7.02737 37.0095 7.10355 37.0166 7.17735 37.0273C4.56468 41.0648 2.00676 45.0225 1.56636 45.7759C-0.507111 49.3289 -0.145268 51.4976 0.52248 52.6915C1.31878 54.1198 2.96494 54.9256 5.15625 54.9744L17.5685 55.2517C16.3651 58.719 15.5688 61.3674 15.5903 62.2744V62.5125L17.1959 62.5315C15.276 70.5183 19.0326 77.5386 20.9715 81.0785L8.22003 117.977C7.85105 118.77 6.90239 120.186 5.89898 121.686C4.42661 123.885 3.36249 125.511 3.00184 126.46C2.78216 126.456 2.56694 126.523 2.38765 126.65C1.71871 127.104 1.29616 128.316 1.48304 129.25C1.60207 129.853 1.95915 130.243 2.49002 130.35C2.83478 130.426 3.18501 130.475 3.53747 130.497C3.50652 130.735 3.53747 131.07 3.68744 131.56C3.84813 132.073 4.76822 132.252 6.75599 132.155C6.5834 132.822 6.64529 133.345 6.9381 133.723C7.53919 134.488 8.8854 134.36 9.69003 134.284L9.91142 134.265C9.73169 135.076 9.8162 135.656 10.165 136.035C10.7791 136.702 12.0218 136.466 12.8431 136.311C12.9966 136.283 13.1716 136.249 13.3049 136.231C12.9704 137.065 13.2145 137.588 13.4918 137.881C14.1048 138.53 15.3653 138.583 15.82 138.396C16.4485 138.137 16.6782 138.105 16.7627 138.11C16.7603 138.18 16.7531 138.251 16.7413 138.32C16.6984 138.629 16.6222 139.146 17.1531 139.414C17.9244 139.806 18.6433 140 19.2956 140C19.7383 140.005 20.1758 139.904 20.5717 139.705C20.9675 139.507 21.3103 139.217 21.5714 138.86C21.7903 139.198 22.1316 139.438 22.5237 139.53C23.0158 139.647 23.5301 139.632 24.015 139.488C24.4999 139.344 24.9383 139.074 25.2863 138.707C25.8648 138.064 25.9933 137.205 25.6541 136.281C25.9445 134.52 25.7077 133.09 24.9494 132.033C23.7663 130.382 21.6262 130.042 20.4752 129.86C20.2605 129.833 20.0481 129.791 19.8396 129.734C18.879 128.61 17.9589 125.762 18.9052 122.887L18.973 122.681L18.4696 122.443L29.6011 98.1721L42.9322 124.739C42.743 125.13 43.0001 125.602 43.2346 125.947C43.8297 127.661 44.1618 129.447 44.4534 131.025C44.7724 132.75 45.0485 134.248 45.5937 135.13C45.3556 135.756 45.5544 137.36 45.7413 138.025C45.8782 138.501 46.0377 138.739 46.2614 138.794C46.3932 138.823 46.5277 138.838 46.6626 138.838C47.4601 138.838 47.9826 138.288 48.3123 137.941C48.3995 137.842 48.4947 137.751 48.5968 137.668C48.6524 137.758 48.6949 137.855 48.7229 137.957C48.7574 138.077 48.8221 138.186 48.9106 138.274C48.9992 138.361 49.1087 138.425 49.2288 138.458C49.9204 138.655 50.925 137.982 51.1333 137.799C51.5026 137.509 51.8058 137.144 52.0224 136.728L52.1414 136.828C52.6354 137.26 53.1413 137.423 53.6436 137.323C54.4506 137.157 55.0219 136.335 55.3362 135.742C55.4688 135.832 55.5889 135.939 55.6932 136.061C56.0241 136.418 56.1991 136.433 57.5572 136.18C58.9368 135.928 59.6069 134.99 59.9056 134.547C60.1114 134.729 60.3526 134.867 60.6143 134.952C60.8759 135.036 61.1521 135.065 61.4256 135.038C62.1862 134.986 62.8754 134.603 63.1813 134.063C63.3206 133.815 63.4194 133.633 63.4812 133.501C64.6906 133.977 64.9024 133.896 66.0915 133.209C66.4915 132.978 66.7617 132.515 66.9247 132.19C67.4211 132.509 68.3328 132.527 68.6423 132.45C69.1434 132.329 69.5888 132.042 69.9055 131.636C70.2223 131.229 70.3917 130.727 70.3861 130.212ZM55.2397 26.1815L55.4373 26.0339L55.4909 25.9934L58.8439 23.4796V23.3605C58.8439 21.7275 58.9237 20.9728 59.4272 19.4326C59.8176 18.2423 61.6387 17.4841 62.9421 17.4651C63.0266 17.4651 63.1075 17.4651 63.1873 17.471C63.242 17.471 63.2956 17.4758 63.3479 17.4853C63.2944 17.5781 63.2194 17.6948 63.1313 17.8257C63.0432 17.9566 62.929 18.1245 62.8111 18.2911C62.2672 19.0612 61.5506 20.0039 61.4244 20.1563L60.871 20.8264L61.6935 20.5419C61.9137 20.4658 62.0767 20.2634 62.2076 20.1015C62.2529 20.0456 62.2957 19.992 62.3267 19.9563C62.4124 19.8718 62.5005 19.773 62.5897 19.6683C62.679 19.5635 62.7933 19.4219 62.898 19.2838C63.0028 19.1457 63.1075 19.0005 63.2146 18.8458C63.7967 18.0126 64.4156 16.9485 64.9846 15.9736C65.6178 14.8917 66.4046 13.5443 66.651 13.43C66.9521 13.3264 67.3473 13.2407 67.5223 13.43C67.7341 13.6538 67.6972 14.2715 67.4425 15.075C67.2283 15.3237 66.9414 15.8832 66.5046 16.7414C65.9844 17.7698 65.2726 19.1779 64.8751 19.4005L65.1131 19.8266C65.6023 19.5528 66.1784 18.4661 66.939 16.9616C67.0961 16.6509 67.2556 16.3355 67.3997 16.0665L67.5353 16.1308L67.646 15.9272C68.6828 14.0168 69.3124 13.6514 69.6552 13.6823C69.7114 13.6797 69.7672 13.6922 69.8169 13.7186C69.8665 13.745 69.9081 13.7843 69.9373 13.8323C70.2659 14.4275 69.2815 16.3807 68.8661 17.2163C68.7066 17.5341 68.5887 17.7674 68.5411 17.9043C67.9639 19.0529 66.7998 21.2656 66.5617 21.4751C66.5826 21.4606 66.606 21.4501 66.6307 21.4442L66.7414 21.9203C66.8605 21.8929 66.9712 21.8655 67.646 20.6538L67.4592 21.2275L68.9839 18.1102C69.4517 17.158 69.7076 17.0211 69.7588 17.0032C69.8862 17.1223 70.0361 17.9221 69.7029 19.6671C69.316 21.6906 68.5126 23.5891 66.251 25.8304C66.1832 25.8982 66.1142 25.9661 66.0427 26.0339L65.8285 26.2374C65.1358 26.8793 64.4112 27.486 63.6574 28.055L58.4083 31.3604L58.3964 31.3676L57.9012 30.5641L55.6087 26.8647L55.2052 26.2112L55.2397 26.1815ZM67.0521 11.8981C66.9759 12.0493 66.7974 12.2826 66.6391 12.3147C65.9678 12.4516 66.2725 11.6815 66.3546 11.4434C66.6522 10.5876 67.4651 11.0709 67.0521 11.9017V11.8981ZM67.0878 131.681L67.0045 131.452L66.7759 131.535C66.6712 131.571 66.6391 131.646 66.5831 131.773C66.4843 131.993 66.226 132.578 65.8523 132.791C64.7489 133.428 64.6989 133.458 63.6396 133.04C63.6268 132.992 63.5995 132.948 63.5614 132.916C63.5234 132.883 63.4763 132.863 63.4265 132.858C63.3678 132.853 63.3091 132.868 63.2607 132.902C63.2122 132.935 63.1769 132.985 63.1611 133.041C63.0448 133.312 62.9112 133.574 62.7611 133.827C62.5374 134.222 61.9898 134.515 61.3971 134.555C60.8507 134.592 60.3806 134.405 60.1056 134.042C60.0806 134.009 60.0478 133.982 60.0101 133.964C59.9723 133.946 59.9308 133.937 59.889 133.939C59.7331 133.939 59.6509 134.058 59.5319 134.242C59.2593 134.645 58.6927 135.482 57.4763 135.704C56.2598 135.927 56.2146 135.899 56.061 135.731C55.8616 135.508 55.6238 135.322 55.3588 135.183L55.2481 135.122L55.129 135.177C55.067 135.208 55.0193 135.262 54.9957 135.328C54.5815 136.187 54.0518 136.741 53.5424 136.844C53.1972 136.916 52.8282 136.786 52.4592 136.46C52.2105 136.243 52.0843 136.135 51.9058 136.169C51.7272 136.204 51.6677 136.335 51.607 136.466C51.4188 136.841 51.1492 137.169 50.8178 137.426C50.5227 137.674 49.7395 138.098 49.3586 137.988C49.315 137.978 49.2754 137.955 49.2442 137.923C49.2131 137.89 49.1916 137.85 49.1824 137.806C49.0919 137.528 48.9634 137.236 48.7003 137.175C48.4373 137.115 48.204 137.341 47.954 137.604C47.5862 137.992 47.128 138.471 46.384 138.318C46.1305 138.072 45.8996 136.337 45.9686 135.592C45.9734 135.502 45.9915 135.412 46.0222 135.327H46.0377L46.3091 135.249L69.4315 128.643L69.4922 128.852L69.5672 129.109L69.6398 129.361L69.8981 130.25C69.8943 130.65 69.7573 131.036 69.5086 131.349C69.26 131.662 68.914 131.883 68.5257 131.976C68.1162 132.083 67.1735 131.921 67.0878 131.685V131.681ZM51.019 122.371C51.0011 119.691 50.9988 116.444 51.019 113.815L53.5376 121.684L51.019 122.371ZM50.5322 122.503L49.599 122.757C48.3063 122.317 46.534 122.43 45.0426 122.526C44.5355 122.559 44.0535 122.59 43.6309 122.597C43.2274 121.118 43.2465 118.186 43.2845 115.043C44.0392 115.093 44.8164 115.162 45.5877 115.225C47.0851 115.354 48.6337 115.486 49.918 115.486V114.998C48.6539 114.998 47.1803 114.872 45.633 114.74C44.851 114.673 44.0606 114.605 43.2941 114.555C43.3322 111.363 43.3655 108.084 42.9667 105.997C43.919 106.03 44.8712 106.055 45.8877 106.055C46.7209 106.055 47.591 106.039 48.5254 105.999L50.556 112.344C50.5096 115.193 50.5096 119.281 50.531 122.506L50.5322 122.503ZM22.4856 91.7268C22.3403 90.2091 22.2273 89.0081 22.1975 88.5618C22.9962 88.6082 23.8925 88.6558 24.8507 88.7034L28.5715 96.1189C26.429 96.0141 24.5114 95.9118 22.8665 95.8142C22.745 94.4823 22.6165 93.1063 22.4856 91.7268ZM21.9749 74.1487C21.9868 73.1869 21.9975 72.2057 22.0071 71.2051C24.2876 71.2265 26.7551 71.4063 29.1761 71.5824L31.1199 71.7217C31.1568 73.7606 31.2115 75.9639 31.2806 78.0742C31.2937 78.4682 31.3079 78.8848 31.3234 79.3193C27.7907 79.13 24.1055 79.3645 21.9345 80.3905C21.9249 78.3004 21.9487 76.2507 21.9749 74.1487ZM22.0214 68.3437C22.0214 67.7914 22.0571 67.2546 22.0928 66.7356C22.1451 65.9619 22.188 65.3204 22.0928 64.8526C22.4772 64.8847 22.8632 64.8919 23.2485 64.874C25.9862 64.7038 28.562 64.7002 31.1175 64.7633C31.0782 65.1894 31.052 66.219 31.0746 68.8388C31.0818 69.5923 31.0925 70.3957 31.1056 71.2313L29.2011 71.0956C26.7718 70.9182 24.2972 70.7385 22.0011 70.7159C22.0146 69.9398 22.0214 69.1491 22.0214 68.3437ZM31.3674 64.824L31.3758 64.7692H31.5531C31.5277 64.7909 31.4981 64.8069 31.4661 64.8164C31.4341 64.8258 31.4005 64.8284 31.3674 64.824ZM31.8079 88.4999C29.5273 88.4178 27.2086 88.3214 25.1613 88.2237L22.1428 82.2224C22.0844 82.1033 22.0237 81.9783 21.9476 81.845C21.9476 81.5427 21.9404 81.2416 21.938 80.9416C23.9734 79.8704 27.7407 79.6323 31.3413 79.8251C31.4424 82.5283 31.5936 85.8027 31.8031 88.4999H31.8079ZM21.9642 82.9508L24.5959 88.1964C23.7187 88.1535 22.901 88.1095 22.1666 88.0678C22.0618 86.2872 21.9987 84.5946 21.9642 82.9508ZM25.416 88.7296C27.4145 88.8248 29.6499 88.9177 31.8436 88.9962C32.0221 91.1471 32.2423 92.8611 32.5077 93.505C32.6732 93.905 32.7458 95.0631 32.7958 96.3153L31.6055 96.2617C30.7501 96.2236 29.9236 96.184 29.1261 96.1427L25.416 88.7296ZM41.461 91.0566C41.5182 92.723 41.5872 94.6894 41.6753 96.6593C39.4602 96.5879 36.5285 96.4772 33.285 96.3367C33.2362 95.0012 33.1541 93.7907 32.9589 93.3182C32.7387 92.7837 32.5268 91.2947 32.3351 89.0129C35.7703 89.1319 39.065 89.2129 41.1658 89.2129H41.3956C41.4158 89.7711 41.4384 90.3996 41.461 91.0566ZM32.8125 96.8116C32.8244 97.2116 32.8339 97.6127 32.8434 97.9936C32.8946 100.05 32.9267 100.634 33.0576 100.826L33.4623 100.551L33.4719 100.569C33.3909 100.374 33.36 99.1029 33.3314 97.9817C33.3219 97.6044 33.3124 97.2163 33.3017 96.8331C36.4238 96.9699 39.409 97.083 41.6979 97.1544C41.8491 100.419 42.055 103.636 42.3704 105.486L41.1206 105.434C39.5256 105.365 37.8747 105.294 36.0095 105.294V105.782C37.8652 105.782 39.509 105.853 41.0992 105.921L42.4621 105.978C42.8739 108.001 42.8406 111.307 42.8025 114.525C41.0992 114.429 39.5423 114.439 38.4675 114.752L29.3856 96.6486C30.5235 96.7081 31.6745 96.7617 32.8125 96.8116ZM42.8691 105.509C42.5525 103.707 42.3407 100.469 42.1871 97.1699C43.5774 97.2104 44.6677 97.2342 45.3152 97.2342C45.477 97.2342 45.6104 97.2342 45.7139 97.2342L48.3671 105.525C46.3222 105.603 44.5796 105.572 42.8691 105.509ZM42.1645 96.6748C42.0752 94.6953 42.0074 92.7183 41.9491 91.04C41.9241 90.3258 41.9026 89.7164 41.8836 89.2093C42.4359 89.2034 42.8632 89.1879 43.1334 89.1641L45.5604 96.7497C45.0366 96.7533 43.8368 96.7271 42.1645 96.6748ZM42.981 88.688C42.7239 88.707 42.3454 88.7177 41.8645 88.7225C41.8169 87.5167 41.7848 87.0025 41.7455 86.8668L41.2801 87.0132C41.3099 87.1323 41.3444 87.7893 41.3813 88.7249C39.3138 88.7249 35.8822 88.6415 32.2994 88.5166C32.1233 86.2788 31.9662 83.3507 31.8364 79.8489C34.455 80.0203 36.9284 80.4131 38.5353 80.869L38.6686 80.4C36.9939 79.9239 34.4705 79.5204 31.8174 79.3478C31.8055 79.0134 31.7936 78.6753 31.7829 78.3313C31.7031 75.9615 31.6484 73.7154 31.6138 71.7538C33.4493 71.8728 35.2704 71.9705 36.9975 71.9705C37.2117 71.9705 37.4224 71.9705 37.6331 71.9705L42.981 88.688ZM37.9818 71.4717L37.6021 70.2814L37.1379 70.4386L37.4736 71.486C35.6072 71.5062 33.6135 71.4051 31.6007 71.2706C31.5436 67.8295 31.5519 65.3549 31.6007 64.7823C33.1481 64.8252 34.6955 64.8918 36.2666 64.9597C37.8378 65.0275 39.4352 65.0954 41.0754 65.1406C41.0623 67.1189 41.0754 69.203 41.0825 71.2468C40.0545 71.3804 39.0196 71.4555 37.983 71.4717H37.9818ZM44.3582 70.4005C43.4638 70.7654 42.5292 71.0227 41.5741 71.167C41.5634 69.1507 41.5539 67.0974 41.567 65.1489C42.6073 65.1739 43.6642 65.1906 44.7415 65.1906V64.7026C43.6702 64.7026 42.6108 64.6859 41.5705 64.6597C41.5705 64.0348 41.5836 63.4219 41.5943 62.8243L46.7376 62.8862L44.3582 70.4005ZM5.16696 54.4888C3.15539 54.4447 1.65682 53.7222 0.948603 52.4546C0.0796972 50.9072 0.439164 48.679 1.98772 46.0271C2.42455 45.2796 4.99913 41.2981 7.61894 37.2475L7.81415 36.9464L8.11053 36.4893C8.62711 35.6895 9.13893 34.9003 9.62457 34.148C9.75431 34.148 9.88762 34.154 10.0293 34.154C11.0577 34.154 12.4027 34.0731 13.8132 33.9874C15.2689 33.9005 16.7746 33.81 17.9649 33.81H18.6314C20.3907 33.81 23.5973 33.8017 25.6541 33.929L25.9088 33.9457L26.0826 33.9588C25.1768 36.3834 24.1781 39.0294 23.1878 41.5968C22.9498 42.2194 22.7117 42.8371 22.4737 43.4453C21.1644 46.84 19.9253 49.9609 19.0433 52.0773L18.9599 52.0963L18.8052 52.1344L18.6921 52.1606L18.641 52.263V52.2737C17.753 54.0591 17.6268 54.5769 17.6554 54.7733L5.16696 54.4888ZM11.0969 31.8734C12.1801 30.1927 12.9574 28.9787 13.0919 28.7382C16.1759 23.2451 19.7812 22.0726 22.257 22.0572H22.3213C25.7207 22.0572 28.3798 24.1116 28.9869 25.1662C29.1357 25.4233 29.1333 25.5625 29.1059 25.6054L29.0845 25.6506C29.083 25.6567 29.0811 25.6627 29.0785 25.6685C28.9071 26.1779 28.6845 26.8171 28.4203 27.5598C27.8573 29.1358 27.1027 31.1997 26.2492 33.4767L26.085 33.4636L25.8303 33.4446C23.7877 33.3077 20.5597 33.3137 18.6231 33.3172H17.9649C16.7603 33.3172 15.2475 33.4077 13.7846 33.4958C12.3217 33.5839 10.9601 33.6672 9.94237 33.6588L10.8946 32.1758L11.0946 31.8663L11.0969 31.8734ZM25.7053 51.3536C24.1258 52.4141 21.6428 53.7627 18.5636 54.3828L18.3815 54.4185L18.2624 54.4412L18.1898 54.4566C18.4358 53.8162 18.7139 53.1885 19.023 52.576H19.0409L19.098 52.5629L19.3944 52.4891C23.0486 51.55 26.1016 49.6419 28.0656 47.0686C28.2754 47.6388 28.5137 48.1982 28.7798 48.7445C28.5108 49.0968 27.4229 50.2038 25.7053 51.3536ZM48.7027 0.528537C49.5573 0.673751 50.0822 1.20105 50.262 2.09495C50.5346 3.45544 49.499 4.8326 47.9802 6.0931L47.7814 6.25379C47.7184 6.30497 47.6529 6.35616 47.5874 6.40615C45.4592 8.05231 42.5882 9.45327 40.9456 10.2567L40.4445 10.5031L40.1791 10.634L40.1493 10.6495C40.0785 10.5888 40.015 10.5201 39.9601 10.4448C39.2007 9.40685 39.5542 6.68229 40.1731 5.63366C41.736 2.98885 45.7199 0.488068 48.1885 0.488068C48.3607 0.487226 48.5327 0.500762 48.7027 0.528537ZM39.9161 18.3828C40.0351 16.9901 40.1279 15.1404 40.1779 13.3098C40.1965 12.57 40.2549 11.8318 40.3529 11.0982C40.579 10.9792 40.8504 10.8519 41.1599 10.7007C42.9608 9.82107 45.8103 8.42963 47.9445 6.76204C48.3054 7.14851 48.6301 7.56726 48.9146 8.01303C49.8668 9.48779 51.0119 12.1183 51.0904 16.2807C51.1309 18.3875 47.9493 19.5159 46.903 19.8861C46.509 20.0265 46.4031 20.0634 46.4031 20.2527C46.4031 20.8574 45.9901 22.5011 45.5913 24.089C45.5032 24.4461 45.4152 24.7889 45.333 25.1221C45.2449 25.2031 45.164 25.2781 45.095 25.3423C44.9938 25.4364 44.8891 25.534 44.8569 25.5542C44.7462 25.6304 44.2725 25.5637 43.8725 25.4947C43.8597 25.442 43.8442 25.3899 43.8261 25.3388C43.794 25.2555 43.75 25.14 42.5585 24.4889L42.3549 24.3782L42.349 24.3877C41.9681 22.6547 41.0028 21.2133 39.6875 20.3515C39.7649 19.9051 39.8411 19.2767 39.9161 18.378V18.3828ZM41.1361 30.8343C41.5206 29.525 41.9336 28.124 42.2073 26.9635C42.2276 26.8826 42.2454 26.8028 42.2633 26.7255C42.2811 26.6481 42.3014 26.5564 42.3192 26.4743C42.3728 26.2243 42.418 25.9899 42.4525 25.7768C42.4668 25.6923 42.4787 25.6113 42.4883 25.5328C42.4978 25.4542 42.5085 25.3673 42.5156 25.2947C42.5228 25.2221 42.5287 25.1162 42.5299 25.0364C42.6489 25.1055 42.7751 25.1757 42.887 25.2435L43.0786 25.3626C43.1836 25.4243 43.2853 25.4915 43.3833 25.5637C43.3937 25.5971 43.4032 25.6328 43.4119 25.6709C43.4309 25.7552 43.4444 25.8407 43.4524 25.9268C43.4777 26.2706 43.4721 26.6159 43.4357 26.9587C43.4274 27.0409 43.419 27.1242 43.4095 27.2099C43.4 27.2956 43.3905 27.3706 43.3798 27.448C43.2024 28.7846 42.7846 30.407 42.4037 31.3354C42.2609 31.6794 42.1657 31.9639 42.0705 32.215C41.7765 33.0363 41.6467 33.4053 40.7171 34.0005C40.5659 34.0992 40.3945 34.204 40.197 34.3183C40.3124 33.6327 40.7623 32.1043 41.1361 30.8295V30.8343ZM7.02023 36.5155C6.95001 36.5084 6.8524 36.4977 6.77146 36.4846C7.15235 35.8085 8.38429 33.6398 9.16988 32.5376C9.3508 32.2829 9.52696 32.0508 9.61742 32.0032C9.66265 31.9817 9.74478 32.0032 9.95189 32.0734C10.0483 32.1043 10.1661 32.1424 10.309 32.1829L7.46302 36.5869C7.31769 36.5507 7.16957 36.5268 7.02023 36.5155ZM17.7018 62.5327L41.1075 62.8208C41.0956 63.4159 41.0885 64.0265 41.0837 64.649C39.4495 64.6026 37.8557 64.53 36.2928 64.4681C31.9388 64.2812 27.8264 64.1039 23.2247 64.3884C22.7828 64.4077 22.34 64.395 21.8999 64.3503C21.8515 64.2835 21.7924 64.2252 21.725 64.1777C21.4607 63.9932 21.0953 64.0051 20.6133 64.2086L20.4288 64.186C19.6431 64.0711 18.8514 64.0015 18.0577 63.9777V64.4657C18.8315 64.4897 19.6033 64.558 20.3692 64.6704C20.7751 64.7204 21.187 64.7704 21.5869 64.8109C21.7059 65.2025 21.6559 65.9631 21.6059 66.7046C21.5714 67.2081 21.5333 67.7759 21.5333 68.346C21.5333 69.1507 21.5298 69.941 21.5226 70.7171C20.1901 70.7048 18.8584 70.7871 17.5376 70.9635C17.0484 68.3758 16.965 65.5215 17.7018 62.5363V62.5327ZM17.634 71.4372C18.9219 71.2677 20.2201 71.1882 21.5191 71.1992C21.5111 72.199 21.5004 73.179 21.4869 74.1392C21.4595 76.3293 21.4345 78.4634 21.4476 80.6476C21.4107 80.6702 21.3738 80.6928 21.3381 80.7166C20.1931 78.6265 18.4624 75.3639 17.634 71.4408V71.4372ZM21.2941 81.6522L21.4595 81.9593C21.4869 83.9042 21.5512 85.9063 21.6774 88.0297C20.5692 87.9619 19.6908 87.8988 19.1528 87.8429L21.2941 81.6522ZM18.9897 88.3178C19.5408 88.3797 20.4907 88.4499 21.7059 88.5249V88.5666C21.7333 89.0058 21.8428 90.1639 21.9952 91.7648C22.1011 92.8813 22.2332 94.2787 22.3701 95.7761C19.4027 95.594 17.39 95.4309 16.5734 95.3L18.9897 88.3178ZM16.4151 95.7666C17.2757 95.9142 19.523 96.0903 22.4189 96.2677C22.6974 99.3624 22.9795 102.784 23.0712 105.016C20.6311 104.681 17.2959 104.344 15.0737 104.309C14.9047 103.069 14.6749 102.137 14.3702 101.682L16.4151 95.7666ZM14.1536 102.313C14.3321 102.759 14.4773 103.447 14.5928 104.309C14.2087 104.307 13.8248 104.327 13.443 104.369L14.1536 102.313ZM13.2621 104.891C13.7218 104.816 14.1877 104.783 14.6535 104.795C14.9118 107.056 14.9951 110.298 14.9689 113.484C13.0728 113.336 11.0696 113.171 10.4459 113.048L13.2621 104.891ZM10.2864 113.503C10.7768 113.622 11.9528 113.733 14.9642 113.967C14.9344 116.437 14.8392 118.84 14.7083 120.693L8.75685 117.934L10.2864 113.503ZM22.6653 139.051C22.3606 138.969 21.9785 138.77 21.8809 138.297L21.8309 138.051L21.5869 138.108C21.4822 138.132 21.4369 138.202 21.375 138.299C20.5097 139.65 19.1671 139.876 17.3852 138.971C17.19 138.871 17.19 138.716 17.2364 138.376C17.2698 138.138 17.3066 137.873 17.0948 137.707C17.0004 137.639 16.8859 137.605 16.7698 137.611C16.5318 137.611 16.1747 137.714 15.6462 137.932C15.3855 138.041 14.3286 138.03 13.8608 137.534C13.5799 137.237 13.5751 136.8 13.8453 136.235C13.879 136.177 13.8951 136.111 13.8915 136.044C13.8879 135.977 13.8648 135.913 13.8251 135.859C13.6644 135.649 13.349 135.71 12.7669 135.82C12.0527 135.954 10.9684 136.159 10.5387 135.692C10.278 135.411 10.253 134.879 10.4637 134.113C10.4753 134.071 10.4767 134.026 10.4675 133.984C10.4584 133.941 10.4391 133.901 10.4113 133.867C10.2923 133.727 10.1197 133.748 9.65909 133.787C8.99967 133.848 7.77249 133.964 7.33684 133.409C7.12021 133.134 7.09879 132.695 7.29042 132.1L7.38446 132.08L7.35589 131.855C7.32613 131.627 7.12854 131.638 6.92025 131.65C4.32067 131.796 4.17308 131.423 4.16831 131.412C3.92431 130.633 4.07309 130.43 4.07071 130.43L4.24806 130.311L4.06119 129.931L3.85884 129.995C3.85884 129.995 3.59222 130.074 2.6019 129.876C2.26862 129.809 2.05795 129.567 1.97582 129.162C1.82822 128.427 2.16864 127.405 2.6757 127.061C2.73915 127.017 2.81017 126.986 2.88519 126.967C2.96581 126.949 3.0498 126.951 3.1292 126.975C3.19557 126.994 3.2586 127.023 3.31607 127.061C3.39225 127.11 3.472 127.159 3.55413 127.208C4.10642 127.538 4.7825 127.858 5.4931 128.193C6.58578 128.71 7.82486 129.296 8.94492 130.069C9.64837 130.556 10.4244 131.15 11.2457 131.779C12.3932 132.657 13.6537 133.621 14.9535 134.465C16.3616 135.378 17.8173 136.148 19.2301 136.515C19.7737 136.661 20.3336 136.739 20.8965 136.744C21.0465 136.744 21.3417 136.763 21.6845 136.785C22.6724 136.849 23.4699 136.884 24.0817 136.869C24.6233 136.856 25.0244 136.804 25.2911 136.698C25.4672 137.355 25.3482 137.935 24.9411 138.388C24.3972 138.973 23.4211 139.264 22.6593 139.057L22.6653 139.051ZM18.0363 122.241L15.1796 120.918C15.3189 119.047 15.4248 116.572 15.457 114.015L15.8236 114.043C18.1648 114.223 20.5752 114.409 21.5476 114.572L18.0363 122.241ZM21.7619 114.111C20.837 113.936 18.4172 113.754 15.8652 113.554L15.4665 113.523C15.495 110.368 15.4105 107.14 15.138 104.804C17.3197 104.846 20.6609 105.175 23.0914 105.519C23.1212 106.506 23.1021 107.185 23.0129 107.387L23.458 107.588C23.5663 107.35 23.5997 106.636 23.577 105.586C24.3841 105.705 25.0613 105.824 25.5184 105.926L21.7619 114.111ZM25.7231 105.467C25.2601 105.36 24.4948 105.229 23.5604 105.094C23.4854 102.998 23.2307 99.8207 22.9141 96.3058C24.7161 96.4141 26.7432 96.5224 28.8286 96.626L29.3237 97.6127L25.7231 105.467ZM38.6972 115.199C39.7078 114.928 41.1837 114.924 42.8037 115.017C42.7632 118.336 42.743 121.429 43.2238 122.922L43.4619 122.847V123.085C43.938 123.085 44.4974 123.049 45.0878 123.011C46.2293 122.938 47.5446 122.854 48.6349 123.02L43.3512 124.458L38.6972 115.199Z" fill="#05df72"/>
<path id="Vector_11" d="M79.232 43.3438C79.4486 41.4501 78.8975 39.9134 77.7215 39.1279C77.2495 38.8182 76.7009 38.6453 76.1366 38.6283C75.5723 38.6113 75.0143 38.7508 74.5244 39.0314C73.4746 39.6159 72.714 39.8123 72.2629 39.6159C71.7939 39.4111 71.638 38.7827 71.4725 38.1066C71.294 37.3829 71.1095 36.6342 70.4703 36.3664C69.9133 36.1343 69.1443 36.3283 68.0481 36.9782C67.6624 37.2079 67.3744 37.2889 67.1923 37.2163C66.9471 37.1222 66.8173 36.7116 66.6793 36.2759C66.4269 35.4761 66.0841 34.381 64.6379 34.6893C64.0892 34.8083 63.7131 34.7928 63.5191 34.65C63.3251 34.5072 63.281 34.1572 63.2429 33.7656C63.1941 33.2252 63.1334 32.5539 62.4835 32.2183L62.2598 32.6515C62.643 32.8503 62.7037 33.2217 62.7573 33.8097C62.799 34.2763 62.843 34.7619 63.2334 35.0428C63.5536 35.2809 64.0333 35.3178 64.7439 35.1618C65.7033 34.9571 65.9342 35.5058 66.2175 36.4188C66.3841 36.9449 66.5555 37.49 67.0221 37.6674C67.3589 37.7959 67.766 37.7078 68.3016 37.39C69.2265 36.8401 69.8954 36.6449 70.2846 36.8092C70.6977 36.9818 70.8453 37.5805 70.9988 38.2149C71.1774 38.9362 71.3785 39.7539 72.0701 40.0551C72.6843 40.3229 73.5401 40.1301 74.7625 39.4504C75.1739 39.2136 75.6429 39.0952 76.1175 39.1084C76.5921 39.1217 77.0537 39.266 77.4513 39.5254C78.4702 40.2062 78.9428 41.5751 78.7476 43.2807L79.232 43.3438Z" fill="#05df72"/>
<path id="Vector_12" d="M81.2041 43.1038L81.6922 43.093C81.6529 41.3671 80.978 38.8723 79.2021 37.519C78.1618 36.7262 76.8906 36.4882 75.5265 36.8322L75.4944 36.8429C73.6839 37.5785 73.3519 36.9619 72.8484 36.0299C72.3318 35.0717 71.6879 33.8803 69.2275 34.1909L69.2882 34.6754C71.4188 34.4064 71.9259 35.3503 72.4187 36.262C72.9305 37.2142 73.459 38.1903 75.6622 37.3011C76.887 36.9976 77.9797 37.2012 78.9069 37.9082C80.44 39.0747 81.1649 41.3588 81.2041 43.1038Z" fill="#05df72"/>
</g>
</svg>
