<svg width="91" height="142" viewBox="0 0 91 142" fill="none" xmlns="http://www.w3.org/2000/svg">
<path d="M27.7965 83.1343H8.26924H8.21037C8.02542 80.0063 8.18006 76.8676 8.67156 73.7729C13.1167 75.1075 19.3478 76.5009 26.8152 78.0513L27.8554 78.2672C29.4647 78.6695 31.4468 78.5027 32.3202 80.632C32.3987 80.8185 32.487 81.1423 32.5949 81.4955H32.3987L28.8367 81.6624C28.6654 81.6679 28.4981 81.7156 28.3497 81.8014C28.2013 81.8871 28.0764 82.0082 27.9861 82.1539C27.8958 82.2995 27.8429 82.4652 27.8321 82.6363C27.8212 82.8073 27.8529 82.9784 27.9241 83.1343H27.7965Z" fill="#05df72"/>
<path d="M29.385 71.9679C28.4766 72.6069 27.7603 73.4825 27.3141 74.4996C26.8678 75.5167 26.7085 76.6366 26.8534 77.7378V77.9733C19.3859 76.4229 13.1156 75.0295 8.70968 73.695C4.30377 72.3604 1.75247 71.1731 1.34034 69.9269C-1.82917 60.3203 5.15747 40.8911 8.81761 37.28C10.947 35.1899 15.8631 33.561 21.162 32.5307C21.4005 31.8511 21.8215 31.2502 22.3788 30.7938C22.4542 30.7541 22.533 30.7213 22.6143 30.6957C25.8328 30.0428 29.1496 30.0428 32.3681 30.6957C32.5578 30.7454 32.742 30.8145 32.9176 30.9018C33.2649 31.0429 33.5705 31.27 33.8057 31.5619C34.0409 31.8537 34.1979 32.2006 34.262 32.5699C34.262 32.5699 44.1728 33.6886 46.0372 36.0338C48.2745 38.8206 52.1996 48.4273 55.4574 63.1659L43.2209 63.5781C42.488 63.6097 41.79 63.9001 41.2511 64.3978C40.7121 64.8955 40.367 65.5681 40.2771 66.2962L38.3146 78.5817C38.1282 76.8841 38.0006 74.8332 36.195 74.2935C34.3895 73.7538 32.0247 72.9198 29.385 71.9679Z" fill="#05df72"/>
<path d="M76.6344 131.059H76.811V131.138C77.596 131.314 82.6005 134.013 86.869 134.513C88.9199 134.759 90.853 135.887 90.4016 138.438H67.7539V131.01L76.6344 131.059Z" fill="#05df72"/>
<path d="M42.241 113.672C42.7022 114.898 43.9386 119.952 46.1661 123.278C47.324 124.976 47.7362 127.203 45.4989 128.548L30.6719 111.434L36.0885 106.724C38.0422 109.138 40.1394 111.431 42.3686 113.593L42.241 113.672Z" fill="#05df72"/>
<path d="M42.9553 99.5312H9.52344V140.617H58.8813V102.75" stroke="#05df72" stroke-width="0.86" stroke-linejoin="round"/>
<path d="M27.8936 77.904C12.5662 74.7443 2.16474 72.2126 1.31104 69.6417C-1.85846 60.035 5.12818 40.5961 8.78832 36.9948C10.9177 34.8949 15.8338 33.2758 21.1327 32.2356C21.3712 31.556 21.7922 30.9551 22.3495 30.4988C23.1051 30.0474 29.0515 29.5175 32.3388 30.3712C32.802 30.4668 33.2275 30.6948 33.5637 31.0275C33.8998 31.3602 34.1322 31.7833 34.2326 32.2455C34.2326 32.2455 44.1435 33.3641 46.0079 35.7192C48.255 38.5158 52.1899 47.8771 55.4673 62.6943" stroke="#05df72" stroke-width="0.86" stroke-linejoin="round"/>
<path d="M8.66945 73.459C6.55972 87.9818 10.7007 94.939 19.0218 98.4814C20.525 99.0416 22.0955 99.4012 23.6927 99.551L42.9648 99.4725" stroke="#05df72" stroke-width="0.86" stroke-miterlimit="10"/>
<path d="M74.543 92.2505C75.6616 97.3727 75.8579 107.028 76.8293 131.384" stroke="#05df72" stroke-width="0.86" stroke-miterlimit="10"/>
<path d="M74.3091 66.1684L71.2279 83.4682C71.1227 84.1577 70.7888 84.7919 70.2798 85.2688C69.7709 85.7457 69.1164 86.0378 68.4215 86.098L40.6908 87.8447C40.2138 87.8519 39.7412 87.7526 39.3074 87.5541C38.8736 87.3557 38.4894 87.0629 38.183 86.6973C37.8766 86.3317 37.6556 85.9023 37.536 85.4404C37.4164 84.9786 37.4014 84.4959 37.4919 84.0275L40.2787 66.0016C40.3688 65.2745 40.7142 64.6031 41.2534 64.107C41.7926 63.611 42.4904 63.3226 43.2225 63.2933L71.2279 62.312C71.6985 62.3227 72.1609 62.4365 72.5827 62.6454C73.0044 62.8542 73.3753 63.153 73.6691 63.5207C73.9629 63.8884 74.1724 64.316 74.283 64.7735C74.3936 65.231 74.4025 65.7071 74.3091 66.1684Z" stroke="#05df72" stroke-width="0.86" stroke-miterlimit="10"/>
<path d="M39.4349 87.6581L28.5035 83.3209C28.3034 83.22 28.1412 83.0571 28.0411 82.8566C27.941 82.656 27.9084 82.4285 27.9481 82.2079C27.9878 81.9873 28.0977 81.7854 28.2614 81.6323C28.4252 81.4792 28.634 81.3832 28.8568 81.3584L32.4286 81.1621" stroke="#05df72" stroke-width="0.86" stroke-miterlimit="10"/>
<path d="M8.41406 82.8105L27.7941 82.8498" stroke="#05df72" stroke-width="0.86" stroke-miterlimit="10"/>
<path d="M27.8652 77.9046C29.4745 78.2971 31.4567 78.1401 32.33 80.2694C32.6244 80.9661 33.0856 83.6842 34.4201 82.595C34.9794 82.1338 34.7734 80.7699 34.6654 80.1222C34.4795 79.0012 34.0975 77.9216 33.537 76.9331" stroke="#05df72" stroke-width="0.86" stroke-miterlimit="10" stroke-linecap="round"/>
<path d="M35.8528 76.1865C36.5692 77.4818 37.7565 83.2909 34.7734 82.4667" stroke="#05df72" stroke-width="0.86" stroke-miterlimit="10" stroke-linecap="round"/>
<path d="M36.5488 81.937C36.5488 82.1039 37.6184 82.4866 37.8147 81.8291" stroke="#05df72" stroke-width="0.86" stroke-miterlimit="10" stroke-linecap="round"/>
<path d="M46.2649 62.4002C45.9019 60.055 43.6449 52.5875 42.3398 47.4751" stroke="white" stroke-width="0.86" stroke-miterlimit="10" stroke-linecap="square"/>
<path d="M26.6094 77.6783C26.6094 74.5579 27.836 72.6837 29.6415 71.6533" stroke="white" stroke-width="0.86" stroke-miterlimit="10"/>
<path d="M16.9342 86C17.0912 91.3774 12.3125 94.0268 7.43555 94.2721" stroke="#05df72" stroke-width="0.86" stroke-miterlimit="10" stroke-linecap="round"/>
<path d="M23.2832 9.54946C23.5874 7.32198 23.9897 4.02491 25.5401 2.29788C30.5152 -3.25611 36.2752 8.05793 37.2074 11.6984C38.0709 15.1035 33.2823 22.7475 31.8988 23.2971C29.8283 24.1213 26.8746 22.1686 25.9326 20.2355" stroke="#05df72" stroke-width="0.86" stroke-miterlimit="10" stroke-linecap="round"/>
<path d="M22.6157 30.7348C22.1856 25.1118 22.2316 19.4625 22.753 13.8472" stroke="#05df72" stroke-width="0.86" stroke-miterlimit="10"/>
<path d="M31.3398 23.1987C31.8894 25.5243 32.0071 28.478 32.9786 30.5779" stroke="#05df72" stroke-width="0.86" stroke-miterlimit="10"/>
<path d="M24.0872 10.5697C21.3396 6.52687 19.3182 11.8454 20.3682 13.2388C21.0551 14.1317 22.4975 13.9649 23.312 13.543" stroke="#05df72" stroke-width="0.86" stroke-miterlimit="10" stroke-linecap="round"/>
<path d="M33.8421 4.82917C34.1757 4.82917 42.0553 3.25914 40.9465 1.10035C39.6807 -1.37246 24.5102 6.42864 23.5977 6.88003" stroke="#05df72" stroke-width="0.86" stroke-miterlimit="10"/>
<path d="M22.8023 11.3643C22.3838 11.749 21.8398 11.9687 21.2715 11.9825" stroke="#05df72" stroke-width="0.86" stroke-miterlimit="10" stroke-linecap="round"/>
<path d="M76.635 131.06H67.8035C66.0151 121.076 63.6496 111.204 60.7188 101.494" stroke="#05df72" stroke-width="0.86" stroke-miterlimit="10"/>
<path d="M76.8287 131.128C77.6137 131.305 82.6181 134.004 86.8867 134.504C88.9473 134.749 90.8903 135.897 90.4192 138.517L67.7617 138.625" stroke="#05df72" stroke-width="0.86" stroke-linecap="round" stroke-linejoin="round"/>
<path d="M67.7426 140.47H90.459V138.606H67.7426V140.47Z" stroke="#05df72" stroke-width="0.86" stroke-linecap="round" stroke-linejoin="round"/>
<path d="M67.7539 131.04V138.449" stroke="#05df72" stroke-width="0.86" stroke-miterlimit="10"/>
<path d="M42.5359 113.839C42.9481 115.104 44.0275 120.08 46.2255 123.288C47.2853 124.848 47.7268 126.831 46.0489 128.195C45.9144 128.305 45.7426 128.36 45.569 128.347C45.3954 128.334 45.2334 128.255 45.1167 128.126L30.9962 112.043C30.8821 111.911 30.8243 111.739 30.8353 111.565C30.8463 111.39 30.9252 111.227 31.0551 111.111L35.8927 106.97" fill="#05df72"/>
<path d="M42.5359 113.839C42.9481 115.104 44.0275 120.08 46.2255 123.288C47.2853 124.848 47.7268 126.831 46.0489 128.195C45.9144 128.305 45.7426 128.36 45.569 128.347C45.3954 128.334 45.2334 128.255 45.1167 128.126L30.9962 112.043C30.8821 111.911 30.8243 111.739 30.8353 111.565C30.8463 111.39 30.9252 111.227 31.0551 111.111L35.8927 106.97" stroke="#05df72" stroke-width="0.86" stroke-miterlimit="10"/>
<path d="M15.2242 47.8286C13.1341 54.4227 10.5239 62.7537 11.0538 63.7841C11.5837 64.8144 21.7497 68.6904 29.6979 71.5459" stroke="white" stroke-width="0.86" stroke-miterlimit="10" stroke-linecap="round"/>
<path d="M26.6973 77.3449C18.7196 76.2361 12.3904 74.9703 7.55273 73.8418" stroke="white" stroke-width="0.86" stroke-miterlimit="10" stroke-linecap="square"/>
<path d="M72.2188 76.9429C72.7487 77.1097 73.2687 77.2961 73.7888 77.4924C79.1662 79.5432 81.0404 86.3827 76.5069 90.4648C73.0725 93.5558 44.125 112.632 42.2998 113.564L35.9805 106.793C35.9805 106.793 49.3159 92.7021 54.9975 87.0205" stroke="#05df72" stroke-width="0.86" stroke-miterlimit="10"/>
<path d="M29.2616 112.657L44.1738 129.794L45.5803 128.57L30.668 111.434L29.2616 112.657Z" stroke="#05df72" stroke-width="0.86" stroke-linecap="round" stroke-linejoin="round"/>
</svg>
